<svg width="16" height="16" viewBox="0 0 16 16" fill="none" xmlns="http://www.w3.org/2000/svg">
<path d="M1.55774 2.89789C1.55774 1.62649 2.57407 0.595825 3.82778 0.595825H7.98953C9.24324 0.595825 10.2596 1.62649 10.2596 2.89789V14.7919H1.55774V2.89789Z" stroke="white" stroke-width="1.143" stroke-linecap="round"/>
<path d="M0.800964 14.7917H11.0162" stroke="white" stroke-width="1.143" stroke-linecap="round"/>
<path d="M1.55774 10.9552H10.2596" stroke="white" stroke-width="1.143" stroke-linecap="round"/>
<path d="M14.043 5.39209V7.81592C14.043 9.05754 12.6648 9.78522 11.6618 9.0732L10.2596 8.07783" stroke="white" stroke-width="1.143" stroke-linecap="round" stroke-linejoin="round"/>
<path d="M4.01703 3.85708C4.01703 3.43328 4.35581 3.08972 4.77371 3.08972H7.04376C7.46166 3.08972 7.80044 3.43328 7.80044 3.85708V5.39178C7.80044 5.81558 7.46166 6.15914 7.04376 6.15914H4.77371C4.35581 6.15914 4.01703 5.81558 4.01703 5.39178V3.85708Z" stroke="white" stroke-width="1.143" stroke-linejoin="round"/>
<path d="M13.6648 2.13053H13.4989C13.0066 2.13053 12.6454 2.59968 12.7648 3.084L13.1431 4.61871C13.2273 4.96031 13.53 5.19995 13.8772 5.19995H14.0431C14.461 5.19995 14.7998 4.85639 14.7998 4.4326V2.89789C14.7998 2.47409 14.461 2.13053 14.0431 2.13053H13.6648ZM13.6648 2.13053L13.0972 0.595825" stroke="white" stroke-width="1.143" stroke-linecap="round" stroke-linejoin="round"/>
</svg>
