<svg width="12" height="12" viewBox="0 0 12 12" fill="none" xmlns="http://www.w3.org/2000/svg">
<path d="M6.63533 2.32231L7.44647 3.94458C7.55708 4.17041 7.85204 4.38702 8.10091 4.42849L9.57109 4.67276C10.5113 4.82945 10.7325 5.51154 10.055 6.18442L8.91204 7.32738C8.71847 7.52094 8.61247 7.89425 8.67239 8.16156L8.99961 9.57643C9.2577 10.6964 8.66317 11.1296 7.6723 10.5443L6.29429 9.72852C6.04542 9.58104 5.63524 9.58104 5.38176 9.72852L4.00375 10.5443C3.01749 11.1296 2.41835 10.6917 2.67644 9.57643L3.00366 8.16156C3.06358 7.89425 2.95758 7.52094 2.76401 7.32738L1.62105 6.18442C0.948173 5.51154 1.16478 4.82945 2.10496 4.67276L3.57514 4.42849C3.81941 4.38702 4.11436 4.17041 4.22497 3.94458L5.03611 2.32231C5.47855 1.44204 6.1975 1.44204 6.63533 2.32231Z" fill="#F5C607"/>
</svg>
