<svg width="14" height="15" viewBox="0 0 14 15" fill="none" xmlns="http://www.w3.org/2000/svg">
<path d="M2.99984 3.67773V11.5444C2.99984 12.2911 2.99984 12.6644 3.14517 12.9497C3.273 13.2006 3.47697 13.4046 3.72784 13.5324C4.0125 13.6777 4.38584 13.6777 5.13117 13.6777H8.8685C9.61384 13.6777 9.9865 13.6777 10.2712 13.5324C10.5225 13.4044 10.7265 13.2004 10.8545 12.9497C10.9998 12.6644 10.9998 12.2917 10.9998 11.5464V3.67773M2.99984 3.67773H4.33317M2.99984 3.67773H1.6665M10.9998 3.67773H9.6665M10.9998 3.67773H12.3332M4.33317 3.67773H9.6665M4.33317 3.67773C4.33317 3.0564 4.33317 2.74573 4.4345 2.50107C4.50144 2.33925 4.59959 2.1922 4.72336 2.06832C4.84712 1.94444 4.99408 1.84615 5.15584 1.77907C5.40117 1.67773 5.71184 1.67773 6.33317 1.67773H7.6665C8.28784 1.67773 8.5985 1.67773 8.84317 1.77907C9.00505 1.84608 9.15214 1.94433 9.27602 2.06822C9.39991 2.1921 9.49816 2.33919 9.56517 2.50107C9.6665 2.74573 9.6665 3.0564 9.6665 3.67773" stroke="#FE7171" stroke-width="1.5" stroke-linecap="round" stroke-linejoin="round"/>
</svg>
