<svg width="11" height="14" viewBox="0 0 11 14" fill="none" xmlns="http://www.w3.org/2000/svg">
<path d="M7.61233 6.83537H5.85768V12.0759H3.51816V6.83537H1.59975V4.68301H3.51816V3.02195C3.51816 1.15032 4.64113 0.0975381 6.34898 0.0975381C7.16782 0.0975381 8.03344 0.261305 8.03344 0.261305V2.10953H7.07424C6.13843 2.10953 5.85768 2.67102 5.85768 3.27929V4.68301H7.93986L7.61233 6.83537Z" fill="#FF4500"/>
<mask id="path-2-inside-1_170_3406" fill="white">
<path d="M8.05786 12.5571H8.80651V13.3058H8.05786V12.5571Z"/>
</mask>
<path d="M8.05786 13.6801H8.28246V12.9315H8.05786V13.6801ZM8.58192 13.6801H8.80651V12.9315H8.58192V13.6801ZM8.05786 14.0544H8.28246V12.5571H8.05786V14.0544ZM8.58192 14.0544H8.80651V12.5571H8.58192V14.0544Z" fill="#BBBBBB" mask="url(#path-2-inside-1_170_3406)"/>
</svg>
