<svg width="20" height="21" viewBox="0 0 20 21" fill="none" xmlns="http://www.w3.org/2000/svg">
<path d="M4.20941 13.1144V7.22131" stroke="white" stroke-width="1.254" stroke-linecap="round" stroke-linejoin="round"/>
<path d="M10.0206 13.1144V7.22131" stroke="white" stroke-width="1.254" stroke-linecap="round" stroke-linejoin="round"/>
<path d="M4.20946 16.482C5.12644 16.482 5.86979 15.7282 5.86979 14.7982C5.86979 13.8683 5.12644 13.1145 4.20946 13.1145C3.29249 13.1145 2.54913 13.8683 2.54913 14.7982C2.54913 15.7282 3.29249 16.482 4.20946 16.482Z" stroke="white" stroke-width="1.254" stroke-linecap="round" stroke-linejoin="round"/>
<path d="M10.0206 16.482C10.9376 16.482 11.6809 15.7282 11.6809 14.7982C11.6809 13.8683 10.9376 13.1145 10.0206 13.1145C9.10365 13.1145 8.36029 13.8683 8.36029 14.7982C8.36029 15.7282 9.10365 16.482 10.0206 16.482Z" stroke="white" stroke-width="1.254" stroke-linecap="round" stroke-linejoin="round"/>
<path d="M4.20946 6.37946C5.12644 6.37946 5.86979 5.62562 5.86979 4.69571C5.86979 3.7658 5.12644 3.01196 4.20946 3.01196C3.29249 3.01196 2.54913 3.7658 2.54913 4.69571C2.54913 5.62562 3.29249 6.37946 4.20946 6.37946Z" stroke="white" stroke-width="1.254" stroke-linecap="round" stroke-linejoin="round"/>
<path d="M10.0206 6.37946C10.9376 6.37946 11.6809 5.62562 11.6809 4.69571C11.6809 3.7658 10.9376 3.01196 10.0206 3.01196C9.10365 3.01196 8.36029 3.7658 8.36029 4.69571C8.36029 5.62562 9.10365 6.37946 10.0206 6.37946Z" stroke="white" stroke-width="1.254" stroke-linecap="round" stroke-linejoin="round"/>
<path d="M15.8318 6.37946C16.7488 6.37946 17.4921 5.62562 17.4921 4.69571C17.4921 3.7658 16.7488 3.01196 15.8318 3.01196C14.9148 3.01196 14.1714 3.7658 14.1714 4.69571C14.1714 5.62562 14.9148 6.37946 15.8318 6.37946Z" stroke="white" stroke-width="1.254" stroke-linecap="round" stroke-linejoin="round"/>
<path d="M4.31744 13.1142C4.69102 11.6409 6.01928 10.5465 7.58829 10.5549L10.4358 10.5633C12.6108 10.5717 14.4621 9.15736 15.1428 7.18738" stroke="white" stroke-width="1.254" stroke-linecap="round" stroke-linejoin="round"/>
</svg>
