<svg width="12" height="13" viewBox="0 0 12 13" fill="none" xmlns="http://www.w3.org/2000/svg">
<path d="M6.21088 3.39627C7.68478 3.39627 8.90133 4.61282 8.90133 6.08672C8.90133 7.58402 7.68478 8.77718 6.21088 8.77718C4.71358 8.77718 3.52042 7.58402 3.52042 6.08672C3.52042 4.61282 4.71358 3.39627 6.21088 3.39627ZM6.21088 7.84137C7.17008 7.84137 7.94213 7.06932 7.94213 6.08672C7.94213 5.12752 7.17008 4.35547 6.21088 4.35547C5.22828 4.35547 4.45623 5.12752 4.45623 6.08672C4.45623 7.06932 5.25167 7.84137 6.21088 7.84137ZM9.62659 3.30269C9.62659 3.65362 9.34584 3.93436 8.99491 3.93436C8.64399 3.93436 8.36324 3.65362 8.36324 3.30269C8.36324 2.95176 8.64399 2.67102 8.99491 2.67102C9.34584 2.67102 9.62659 2.95176 9.62659 3.30269ZM11.4046 3.93436C11.4514 4.79998 11.4514 7.39686 11.4046 8.26248C11.3578 9.10471 11.1707 9.82997 10.5624 10.4616C9.95412 11.0699 9.20547 11.2571 8.36324 11.3039C7.49762 11.3507 4.90074 11.3507 4.03512 11.3039C3.19289 11.2571 2.46764 11.0699 1.83597 10.4616C1.22769 9.82997 1.04053 9.10471 0.993736 8.26248C0.946945 7.39686 0.946945 4.79998 0.993736 3.93436C1.04053 3.09213 1.22769 2.34348 1.83597 1.73521C2.46764 1.12693 3.19289 0.939767 4.03512 0.892977C4.90074 0.846186 7.49762 0.846186 8.36324 0.892977C9.20547 0.939767 9.95412 1.12693 10.5624 1.73521C11.1707 2.34348 11.3578 3.09213 11.4046 3.93436ZM10.2817 9.1749C10.5624 8.49644 10.4922 6.85877 10.4922 6.08672C10.4922 5.33808 10.5624 3.70041 10.2817 2.99855C10.0945 2.55404 9.74356 2.17972 9.29905 2.01595C8.59719 1.73521 6.95953 1.80539 6.21088 1.80539C5.43883 1.80539 3.80117 1.73521 3.1227 2.01595C2.6548 2.20311 2.30387 2.55404 2.11671 2.99855C1.83597 3.70041 1.90615 5.33808 1.90615 6.08672C1.90615 6.85877 1.83597 8.49644 2.11671 9.1749C2.30387 9.6428 2.6548 9.99373 3.1227 10.1809C3.80117 10.4616 5.43883 10.3915 6.21088 10.3915C6.95953 10.3915 8.59719 10.4616 9.29905 10.1809C9.74356 9.99373 10.1179 9.6428 10.2817 9.1749Z" fill="#FF4500"/>
</svg>
