<svg width="22" height="20" viewBox="0 0 22 20" fill="none" xmlns="http://www.w3.org/2000/svg">
<path d="M20.0098 8.63327L20.0098 8.63334C19.5153 11.1852 17.2193 13.7229 14.816 15.7148C13.6444 16.6859 12.5039 17.4816 11.6551 18.0349C11.3097 18.2601 11.0138 18.4444 10.7855 18.583C10.5572 18.4444 10.2614 18.2601 9.9159 18.0349C9.06718 17.4816 7.92662 16.6859 6.75501 15.7148C4.35169 13.7229 2.0557 11.1852 1.56128 8.63334L1.56127 8.63327C1.04326 5.96056 1.56852 4.07304 2.46675 2.8774C3.37034 1.67462 4.73216 1.05808 6.12942 1.05808H6.16275L6.19601 1.05596C6.9238 1.00961 7.65087 1.157 8.30314 1.48314C8.95541 1.80928 9.50957 2.30249 9.90916 2.91254L10.7855 4.25046L11.6619 2.91254C12.0615 2.30249 12.6156 1.80928 13.2679 1.48314C13.9202 1.157 14.6472 1.00961 15.375 1.05596L15.4083 1.05808H15.4416C16.8389 1.05808 18.2007 1.67462 19.1043 2.8774C20.0025 4.07304 20.5278 5.96056 20.0098 8.63327Z" stroke="black" stroke-opacity="0.7" stroke-width="2.09524"/>
</svg>
