<svg width="11" height="11" viewBox="0 0 11 11" fill="none" xmlns="http://www.w3.org/2000/svg">
<path d="M2.36993 10.5786H0.194166V3.58343H2.36993V10.5786ZM1.27035 2.64762C0.591885 2.64762 0.0303993 2.06274 0.0303993 1.36088C0.0303993 0.68242 0.591885 0.120933 1.27035 0.120933C1.97221 0.120933 2.53369 0.68242 2.53369 1.36088C2.53369 2.06274 1.97221 2.64762 1.27035 2.64762ZM10.4881 10.5786H8.33572V7.1863C8.33572 6.36747 8.31232 5.33808 7.18935 5.33808C6.06638 5.33808 5.90261 6.2037 5.90261 7.11612V10.5786H3.72685V3.58343H5.80903V4.54264H5.83242C6.13656 4.00455 6.83842 3.41966 7.89121 3.41966C10.0904 3.41966 10.5115 4.87017 10.5115 6.74179V10.5786H10.4881Z" fill="#FF4500"/>
</svg>
