<svg width="58" height="42" viewBox="0 0 58 42" fill="none" xmlns="http://www.w3.org/2000/svg">
<path fill-rule="evenodd" clip-rule="evenodd" d="M50.204 8.74792H57.5435L36.964 41.272L32.0711 32.7812L26.4585 41.272L23.2922 36.9545L32.0711 23.1389L36.8201 30.4787L50.204 8.74792Z" fill="#FF4500"/>
<path fill-rule="evenodd" clip-rule="evenodd" d="M35.2132 21.426L44.1057 8.75208H37.3737L34.5897 13.531C32.9107 16.4624 34.1666 18.9742 35.2132 21.426Z" fill="black"/>
<path fill-rule="evenodd" clip-rule="evenodd" d="M28.8374 21.0604L31.106 17.6233C28.5304 7.24514 22.6947 0.359026 13.7129 0.743201C3.29291 1.4388 -2.07151 12.4806 1.60305 20.3505L12.3689 40.035C13.2735 41.5376 14.986 41.6106 15.8903 40.1696L20.613 31.1001L18.7872 27.5445L14.2878 36.879L4.96649 19.293C1.77344 13.1721 6.8561 4.91935 13.7129 4.39127C17.7307 3.85011 23.0419 7.72855 25.2483 13.6067L28.8374 21.0601V21.0604Z" fill="black"/>
<path d="M14.7602 20.0958C16.8601 20.0958 18.5624 18.3935 18.5624 16.2936C18.5624 14.1937 16.8601 12.4915 14.7602 12.4915C12.6603 12.4915 10.958 14.1937 10.958 16.2936C10.958 18.3935 12.6603 20.0958 14.7602 20.0958Z" fill="black"/>
</svg>
