<svg width="12" height="12" viewBox="0 0 12 12" fill="none" xmlns="http://www.w3.org/2000/svg">
<path d="M7.21352 2.32231L8.02465 3.94458C8.13526 4.17041 8.43022 4.38702 8.67909 4.42849L10.1493 4.67276C11.0895 4.82945 11.3107 5.51154 10.6332 6.18442L9.49023 7.32738C9.29666 7.52094 9.19066 7.89425 9.25057 8.16156L9.57779 9.57643C9.83588 10.6964 9.24136 11.1296 8.25048 10.5443L6.87247 9.72852C6.6236 9.58104 6.21343 9.58104 5.95995 9.72852L4.58194 10.5443C3.59567 11.1296 2.99654 10.6917 3.25463 9.57643L3.58185 8.16156C3.64176 7.89425 3.53576 7.52094 3.3422 7.32738L2.19923 6.18442C1.52636 5.51154 1.74297 4.82945 2.68315 4.67276L4.15333 4.42849C4.39759 4.38702 4.69255 4.17041 4.80316 3.94458L5.61429 2.32231C6.05673 1.44204 6.77569 1.44204 7.21352 2.32231Z" stroke="#F5C607" stroke-width="0.691308" stroke-linecap="round" stroke-linejoin="round"/>
</svg>
