<svg width="56" height="56" viewBox="0 0 56 56" fill="none" xmlns="http://www.w3.org/2000/svg">
<path d="M51.1433 42.3234C51.1433 43.1546 50.9586 44.0089 50.5661 44.8402C50.1735 45.6714 49.6656 46.4564 48.996 47.1953C47.8646 48.4421 46.6177 49.3426 45.2093 49.9199C43.8239 50.4971 42.323 50.7973 40.7068 50.7973C38.3516 50.7973 35.8348 50.2431 33.1795 49.1117C30.5242 47.9804 27.8689 46.4564 25.2367 44.54C22.5814 42.6005 20.0646 40.4531 17.6633 38.0749C15.285 35.6735 13.1377 33.1568 11.2212 30.5245C9.32788 27.8923 7.80397 25.2601 6.69566 22.651C5.58736 20.0187 5.0332 17.502 5.0332 15.1006C5.0332 13.5305 5.31028 12.0297 5.86443 10.6443C6.41858 9.23586 7.29599 7.94283 8.51975 6.78835C9.99749 5.3337 11.6138 4.61792 13.3224 4.61792C13.9689 4.61792 14.6154 4.75646 15.1927 5.03353C15.793 5.31061 16.3241 5.72622 16.7397 6.32656L22.0965 13.8769C22.5121 14.4541 22.8123 14.9852 23.0201 15.4932C23.2279 15.978 23.3433 16.4629 23.3433 16.9016C23.3433 17.4558 23.1817 18.0099 22.8584 18.541C22.5583 19.0721 22.1196 19.6262 21.5654 20.1804L19.8106 22.0045C19.5566 22.2584 19.4412 22.5586 19.4412 22.928C19.4412 23.1128 19.4643 23.2744 19.5104 23.4591C19.5797 23.6438 19.649 23.7824 19.6952 23.9209C20.1108 24.6829 20.8265 25.6757 21.8425 26.8764C22.8815 28.077 23.9898 29.3008 25.1905 30.5245C26.4373 31.7483 27.638 32.8797 28.8618 33.9187C30.0624 34.9347 31.0553 35.6274 31.8403 36.043C31.9558 36.0892 32.0943 36.1584 32.2559 36.2277C32.4407 36.297 32.6254 36.3201 32.8332 36.3201C33.2257 36.3201 33.5259 36.1815 33.7799 35.9275L35.5347 34.1958C36.1119 33.6186 36.6661 33.1799 37.1971 32.9028C37.7282 32.5795 38.2593 32.4179 38.8365 32.4179C39.2752 32.4179 39.737 32.5103 40.245 32.7181C40.7529 32.9259 41.284 33.226 41.8613 33.6186L49.5039 39.0446C50.1043 39.4603 50.5199 39.9451 50.7739 40.5224C51.0048 41.0996 51.1433 41.6769 51.1433 42.3234Z" stroke="#FF4500" stroke-width="3.46345" stroke-miterlimit="10"/>
</svg>
