<svg width="27" height="27" viewBox="0 0 27 27" fill="none" xmlns="http://www.w3.org/2000/svg">
<path d="M17.1001 13.3702C17.1001 15.5152 15.3668 17.2485 13.2218 17.2485C11.0768 17.2485 9.34344 15.5152 9.34344 13.3702C9.34344 11.2252 11.0768 9.49182 13.2218 9.49182C15.3668 9.49182 17.1001 11.2252 17.1001 13.3702Z" stroke="#1E1E1E" stroke-width="1.625" stroke-linecap="round" stroke-linejoin="round"/>
<path d="M13.2217 22.3293C17.0459 22.3293 20.61 20.076 23.0909 16.176C24.0659 14.6485 24.0659 12.081 23.0909 10.5535C20.61 6.65348 17.0459 4.40015 13.2217 4.40015C9.39753 4.40015 5.83336 6.65348 3.35253 10.5535C2.37753 12.081 2.37753 14.6485 3.35253 16.176C5.83336 20.076 9.39753 22.3293 13.2217 22.3293Z" stroke="#1E1E1E" stroke-width="1.625" stroke-linecap="round" stroke-linejoin="round"/>
</svg>
