<svg width="16" height="16" viewBox="0 0 16 16" fill="none" xmlns="http://www.w3.org/2000/svg">
<path d="M8.25 13.9727C4.9425 13.9727 2.25 11.2802 2.25 7.97266C2.25 4.66516 4.9425 1.97266 8.25 1.97266C11.5575 1.97266 14.25 4.66516 14.25 7.97266C14.25 11.2802 11.5575 13.9727 8.25 13.9727ZM8.25 0.472656C4.1025 0.472656 0.75 3.82516 0.75 7.97266C0.75 12.1202 4.1025 15.4727 8.25 15.4727C12.3975 15.4727 15.75 12.1202 15.75 7.97266C15.75 3.82516 12.3975 0.472656 8.25 0.472656ZM10.1925 4.97266L8.25 6.91516L6.3075 4.97266L5.25 6.03016L7.1925 7.97266L5.25 9.91516L6.3075 10.9727L8.25 9.03016L10.1925 10.9727L11.25 9.91516L9.3075 7.97266L11.25 6.03016L10.1925 4.97266Z" fill="#DC6D7E"/>
</svg>
