<svg width="15" height="15" viewBox="0 0 15 15" fill="none" xmlns="http://www.w3.org/2000/svg">
<path fill-rule="evenodd" clip-rule="evenodd" d="M0.390991 8.37804C0.390991 7.24415 1.2974 6.32495 2.41552 6.32495C3.53364 6.32495 4.44005 7.24415 4.44005 8.37804V9.0624C4.44005 9.44036 4.74219 9.74676 5.11489 9.74676H10.0637C10.4365 9.74676 10.7386 9.44036 10.7386 9.0624V8.37804C10.7386 7.24415 11.645 6.32495 12.7631 6.32495C13.8812 6.32495 14.7876 7.24415 14.7876 8.37804V11.3436C14.7876 13.2334 13.277 14.7654 11.4134 14.7654H3.76521C1.90168 14.7654 0.390991 13.2334 0.390991 11.3436V8.37804ZM2.41552 7.69367C2.04282 7.69367 1.74068 8.00007 1.74068 8.37804V11.3436C1.74068 12.4775 2.64709 13.3967 3.76521 13.3967H11.4134C12.5316 13.3967 13.438 12.4775 13.438 11.3436V8.37804C13.438 8.00007 13.1358 7.69367 12.7631 7.69367C12.3904 7.69367 12.0883 8.00007 12.0883 8.37804V9.0624C12.0883 10.1963 11.1819 11.1155 10.0637 11.1155H5.11489C3.99678 11.1155 3.09036 10.1963 3.09036 9.0624V8.37804C3.09036 8.00007 2.78823 7.69367 2.41552 7.69367Z" fill="white"/>
<path fill-rule="evenodd" clip-rule="evenodd" d="M1.7406 4.044C1.7406 2.15419 3.25129 0.622192 5.11482 0.622192H10.0637C11.9272 0.622192 13.4379 2.15419 13.4379 4.044V7.00957C13.4379 7.38753 13.1357 7.69393 12.763 7.69393C12.3903 7.69393 12.0882 7.38753 12.0882 7.00957V4.044C12.0882 2.91011 11.1818 1.99092 10.0637 1.99092H5.11482C3.9967 1.99092 3.09029 2.91011 3.09029 4.044V7.00957C3.09029 7.38753 2.78815 7.69393 2.41544 7.69393C2.04274 7.69393 1.7406 7.38753 1.7406 7.00957V4.044Z" fill="white"/>
</svg>
