<svg width="16" height="18" viewBox="0 0 16 18" fill="none" xmlns="http://www.w3.org/2000/svg">
<path d="M12.9316 11.229C12.4716 11.2313 12.0179 11.3369 11.6041 11.5379C11.1904 11.7389 10.827 12.0303 10.5409 12.3905L6.0483 9.5819C6.21204 9.05346 6.21204 8.48785 6.0483 7.95941L10.5409 5.15078C10.9969 5.71541 11.638 6.10042 12.3506 6.23761C13.0633 6.3748 13.8015 6.25533 14.4346 5.90034C15.0676 5.54536 15.5545 4.97778 15.8091 4.29815C16.0637 3.61852 16.0696 2.87071 15.8256 2.18718C15.5817 1.50366 15.1036 0.92854 14.4763 0.563707C13.8489 0.198875 13.1126 0.0678772 12.3979 0.193919C11.6831 0.31996 11.0361 0.694906 10.5713 1.25234C10.1066 1.80977 9.85413 2.5137 9.85869 3.23944C9.86168 3.51426 9.90305 3.78732 9.98161 4.05069L5.48904 6.85931C5.09241 6.36002 4.55029 5.99648 3.93781 5.81907C3.32533 5.64167 2.67283 5.6592 2.07075 5.86924C1.46868 6.07927 0.946859 6.4714 0.577619 6.99127C0.208378 7.51114 0.0100098 8.133 0.0100098 8.77065C0.0100098 9.40831 0.208378 10.0302 0.577619 10.55C0.946859 11.0699 1.46868 11.462 2.07075 11.6721C2.67283 11.8821 3.32533 11.8996 3.93781 11.7222C4.55029 11.5448 5.09241 11.1813 5.48904 10.682L9.98161 13.4906C9.90305 13.754 9.86168 14.027 9.85869 14.3019C9.85869 14.9096 10.0389 15.5037 10.3766 16.0091C10.7142 16.5144 11.1941 16.9083 11.7556 17.1409C12.3171 17.3734 12.935 17.4343 13.5311 17.3157C14.1272 17.1971 14.6747 16.9045 15.1045 16.4747C15.5342 16.045 15.8269 15.4974 15.9454 14.9014C16.064 14.3053 16.0032 13.6874 15.7706 13.1259C15.538 12.5644 15.1441 12.0845 14.6388 11.7468C14.1335 11.4092 13.5394 11.229 12.9316 11.229ZM12.9316 1.39571C13.2962 1.39571 13.6527 1.50384 13.9559 1.70643C14.2591 1.90902 14.4954 2.19698 14.635 2.53388C14.7745 2.87077 14.811 3.24149 14.7399 3.59914C14.6688 3.95679 14.4932 4.28531 14.2353 4.54316C13.9775 4.80101 13.6489 4.97661 13.2913 5.04775C12.9336 5.11889 12.5629 5.08238 12.226 4.94283C11.8891 4.80329 11.6012 4.56697 11.3986 4.26377C11.196 3.96057 11.0879 3.6041 11.0879 3.23944C11.0879 2.75045 11.2821 2.28149 11.6279 1.93572C11.9736 1.58996 12.4426 1.39571 12.9316 1.39571ZM3.09832 10.6144C2.73367 10.6144 2.3772 10.5063 2.074 10.3037C1.7708 10.1011 1.53448 9.81312 1.39493 9.47622C1.25538 9.13932 1.21887 8.76861 1.29001 8.41096C1.36115 8.05331 1.53675 7.72479 1.7946 7.46694C2.05245 7.20908 2.38098 7.03349 2.73863 6.96234C3.09628 6.8912 3.46699 6.92772 3.80389 7.06726C4.14079 7.20681 4.42874 7.44313 4.63133 7.74633C4.83393 8.04953 4.94206 8.406 4.94206 8.77065C4.94206 9.25964 4.74781 9.72861 4.40204 10.0744C4.05627 10.4201 3.58731 10.6144 3.09832 10.6144ZM12.9316 16.1456C12.5669 16.1456 12.2105 16.0375 11.9073 15.8349C11.6041 15.6323 11.3677 15.3443 11.2282 15.0074C11.0886 14.6705 11.0521 14.2998 11.1233 13.9422C11.1944 13.5845 11.37 13.256 11.6279 12.9981C11.8857 12.7403 12.2142 12.5647 12.5719 12.4936C12.9295 12.4224 13.3003 12.4589 13.6372 12.5985C13.9741 12.738 14.262 12.9743 14.4646 13.2775C14.6672 13.5807 14.7753 13.9372 14.7753 14.3019C14.7753 14.7909 14.5811 15.2598 14.2353 15.6056C13.8895 15.9514 13.4206 16.1456 12.9316 16.1456Z" fill="#1E1E1E"/>
</svg>
