<svg width="16" height="14" viewBox="0 0 16 14" fill="none" xmlns="http://www.w3.org/2000/svg">
<path fill-rule="evenodd" clip-rule="evenodd" d="M5.04854 2.83592C4.43029 3.44507 3.95769 4.18606 3.66605 5.00352C3.37441 5.82098 3.27127 6.69378 3.36434 7.5567C3.373 7.67261 3.3362 7.78735 3.26172 7.87659C3.18724 7.96582 3.08094 8.02256 2.96535 8.03477C2.84976 8.04698 2.73395 8.01371 2.64247 7.942C2.55099 7.87029 2.49103 7.76578 2.47528 7.65062C2.36793 6.65395 2.48714 5.64591 2.824 4.70178C3.16085 3.75764 3.70666 2.90181 4.42066 2.1982C7.04759 -0.392958 11.2854 -0.350919 13.8855 2.28585C16.4856 4.92172 16.4686 9.15951 13.8408 11.7507C12.6244 12.9523 10.9915 13.6386 9.28186 13.6665C8.63551 13.678 7.99087 13.5964 7.36779 13.4241C7.25345 13.3926 7.15633 13.3169 7.09779 13.2138C7.03925 13.1106 7.02409 12.9884 7.05564 12.8741C7.08719 12.7597 7.16286 12.6626 7.26602 12.6041C7.36918 12.5455 7.49137 12.5304 7.60571 12.5619C8.14609 12.7114 8.70519 12.7822 9.26576 12.7721C10.746 12.7485 12.1599 12.1544 13.2129 11.1138C15.4856 8.8724 15.5044 5.20168 13.2486 2.91374C10.9929 0.625794 7.32128 0.594489 5.04854 2.83592Z" fill="#5ADD20"/>
<path fill-rule="evenodd" clip-rule="evenodd" d="M3.25169 8.12475C3.21257 8.16856 3.16521 8.20424 3.11231 8.22975C3.05941 8.25526 3.002 8.2701 2.94336 8.27342C2.88473 8.27675 2.82601 8.26849 2.77056 8.24912C2.71512 8.22974 2.66403 8.19964 2.62022 8.16053L1.08181 6.79205C1.03452 6.75409 0.99544 6.7069 0.966955 6.65337C0.938469 6.59983 0.921171 6.54106 0.91611 6.48062C0.91105 6.42019 0.918334 6.35936 0.937519 6.30183C0.956705 6.2443 0.98739 6.19127 1.02771 6.14597C1.06803 6.10067 1.11714 6.06405 1.17206 6.03832C1.22698 6.0126 1.28656 5.99831 1.34717 5.99633C1.40778 5.99435 1.46816 6.00472 1.52464 6.02681C1.58112 6.0489 1.63252 6.08224 1.67571 6.12481L3.21412 7.49328C3.25806 7.53227 3.29389 7.57954 3.31956 7.63238C3.34523 7.68522 3.36023 7.74259 3.36372 7.80123C3.36721 7.85987 3.35911 7.91863 3.33989 7.97414C3.32066 8.02965 3.29069 8.08083 3.25169 8.12475Z" fill="#5ADD20"/>
<path fill-rule="evenodd" clip-rule="evenodd" d="M2.55868 8.06864C2.59392 8.11562 2.63807 8.1552 2.6886 8.18512C2.73914 8.21505 2.79507 8.23472 2.85321 8.24303C2.91135 8.25133 2.97055 8.24811 3.02744 8.23353C3.08433 8.21895 3.1378 8.19332 3.18478 8.15808L4.97363 6.81644C5.06852 6.74527 5.13125 6.63933 5.14802 6.52191C5.1648 6.4045 5.13424 6.28523 5.06308 6.19034C4.99191 6.09545 4.88597 6.03272 4.76855 6.01595C4.65113 5.99918 4.53186 6.02973 4.43698 6.1009L2.64813 7.44254C2.55324 7.5137 2.49051 7.61965 2.47373 7.73706C2.45696 7.85448 2.48752 7.97375 2.55868 8.06864ZM8.98066 3.77539C9.09927 3.77539 9.21302 3.82251 9.29689 3.90638C9.38076 3.99025 9.42788 4.104 9.42788 4.2226V7.3531C9.42788 7.4717 9.38076 7.58545 9.29689 7.66932C9.21302 7.75319 9.09927 7.80031 8.98066 7.80031C8.86205 7.80031 8.7483 7.75319 8.66443 7.66932C8.58057 7.58545 8.53345 7.4717 8.53345 7.3531V4.2226C8.53345 4.104 8.58057 3.99025 8.66443 3.90638C8.7483 3.82251 8.86205 3.77539 8.98066 3.77539Z" fill="#5ADD20"/>
<path fill-rule="evenodd" clip-rule="evenodd" d="M12.1119 7.35151C12.1119 7.47012 12.0648 7.58387 11.9809 7.66774C11.897 7.75161 11.7833 7.79872 11.6647 7.79872H8.98139C8.86278 7.79872 8.74903 7.75161 8.66517 7.66774C8.5813 7.58387 8.53418 7.47012 8.53418 7.35151C8.53418 7.2329 8.5813 7.11915 8.66517 7.03528C8.74903 6.95141 8.86278 6.9043 8.98139 6.9043H11.6647C11.7833 6.9043 11.897 6.95141 11.9809 7.03528C12.0648 7.11915 12.1119 7.2329 12.1119 7.35151Z" fill="#5ADD20"/>
</svg>
