<svg width="13" height="13" viewBox="0 0 13 13" fill="none" xmlns="http://www.w3.org/2000/svg">
<path d="M11.6614 3.27911C11.6614 3.39608 11.6614 3.48966 11.6614 3.60664C11.6614 6.85858 9.20492 10.5784 4.68963 10.5784C3.28592 10.5784 1.99918 10.1807 0.922996 9.47885C1.11016 9.50224 1.29732 9.52564 1.50788 9.52564C2.65424 9.52564 3.70703 9.12792 4.54926 8.47285C3.47308 8.44946 2.56066 7.7476 2.25653 6.765C2.42029 6.78839 2.56066 6.81179 2.72443 6.81179C2.93499 6.81179 3.16894 6.765 3.3561 6.71821C2.23313 6.48426 1.3909 5.50165 1.3909 4.3085V4.2851C1.71843 4.47226 2.11615 4.56584 2.51387 4.58924C1.83541 4.14473 1.4143 3.39608 1.4143 2.55385C1.4143 2.08595 1.53127 1.66483 1.74183 1.3139C2.95838 2.78781 4.78321 3.77041 6.8186 3.88738C6.77181 3.70022 6.74841 3.51306 6.74841 3.3259C6.74841 1.96897 7.84799 0.869394 9.20492 0.869394C9.90677 0.869394 10.5384 1.15014 11.0064 1.64144C11.5444 1.52446 12.0825 1.3139 12.5504 1.03316C12.3633 1.61804 11.989 2.08595 11.4743 2.39009C11.9656 2.3433 12.4569 2.20292 12.878 2.01576C12.5504 2.50706 12.1293 2.92818 11.6614 3.27911Z" fill="#FF4500"/>
</svg>
