<svg width="562" height="20" viewBox="0 0 562 20" fill="none" xmlns="http://www.w3.org/2000/svg">
<rect width="502" height="10" rx="5" transform="matrix(1 0 0 -1 0.742188 15)" fill="#D9D9D9"/>
<rect width="447" height="10" rx="5" transform="matrix(1 0 0 -1 0.242188 15)" fill="#F9C301"/>
<path d="M533.573 16L532.563 14.6018C533.231 14.2157 533.837 13.7773 534.383 13.2864C534.935 12.7955 535.412 12.2715 535.815 11.7145C536.223 11.1519 536.543 10.5755 536.774 9.98536C536.455 10.3494 536.066 10.6307 535.608 10.8292C535.15 11.0223 534.64 11.1188 534.077 11.1188C533.355 11.1188 532.712 10.9616 532.15 10.6472C531.593 10.3273 531.154 9.88884 530.834 9.33178C530.52 8.7692 530.363 8.12664 530.363 7.40411C530.363 6.6154 530.547 5.91493 530.917 5.30271C531.287 4.69049 531.791 4.21065 532.431 3.86317C533.076 3.5157 533.813 3.34196 534.64 3.34196C535.5 3.34196 536.248 3.53776 536.882 3.92936C537.522 4.32096 538.013 4.87251 538.355 5.584C538.702 6.2955 538.876 7.1311 538.876 8.09079C538.876 8.87951 538.754 9.65167 538.512 10.4073C538.275 11.1574 537.927 11.8744 537.469 12.5583C537.012 13.2423 536.455 13.8765 535.798 14.4612C535.142 15.0403 534.4 15.5532 533.573 16ZM534.582 9.63789C534.974 9.63789 535.321 9.54412 535.624 9.3566C535.933 9.16907 536.176 8.9126 536.352 8.58719C536.529 8.25626 536.617 7.88396 536.617 7.4703C536.617 7.05112 536.529 6.67607 536.352 6.34514C536.176 6.0087 535.936 5.74395 535.633 5.55091C535.329 5.35235 534.987 5.25307 534.607 5.25307C534.232 5.25307 533.89 5.35235 533.581 5.55091C533.278 5.74395 533.038 6.01145 532.861 6.35341C532.685 6.69537 532.596 7.0787 532.596 7.50339C532.596 7.91705 532.682 8.28659 532.853 8.61201C533.024 8.9319 533.258 9.18286 533.556 9.36487C533.854 9.54688 534.196 9.63789 534.582 9.63789ZM539.877 14.6928L541.027 12.9389C541.253 13.3636 541.589 13.7028 542.036 13.9565C542.483 14.2047 542.971 14.3288 543.501 14.3288C543.986 14.3288 544.413 14.2268 544.783 14.0227C545.152 13.8186 545.439 13.5346 545.643 13.1706C545.853 12.8065 545.958 12.3874 545.958 11.913C545.958 11.4387 545.853 11.0195 545.643 10.6555C545.434 10.286 545.144 9.99915 544.775 9.79508C544.405 9.591 543.978 9.48897 543.492 9.48897C543.145 9.48897 542.819 9.54688 542.516 9.66271C542.213 9.77853 541.937 9.94675 541.689 10.1674L540.613 9.53033L541.168 3.59016H547.513V5.50954H543.161L542.864 8.42999C543.272 8.30865 543.702 8.24798 544.154 8.24798C544.937 8.24798 545.632 8.41345 546.239 8.74438C546.846 9.07531 547.32 9.53309 547.662 10.1177C548.009 10.7024 548.183 11.3725 548.183 12.1281C548.183 12.9224 547.99 13.6311 547.604 14.2543C547.218 14.8721 546.686 15.3602 546.007 15.7187C545.329 16.0717 544.554 16.2482 543.683 16.2482C542.944 16.2482 542.243 16.1131 541.581 15.8428C540.919 15.5725 540.351 15.1892 539.877 14.6928ZM552.113 8.77747C551.275 8.77747 550.599 8.53203 550.086 8.04115C549.579 7.55027 549.325 6.90496 549.325 6.10522C549.325 5.29996 549.579 4.65189 550.086 4.16101C550.599 3.67013 551.275 3.42469 552.113 3.42469C552.951 3.42469 553.624 3.67013 554.132 4.16101C554.639 4.65189 554.893 5.29996 554.893 6.10522C554.893 6.90496 554.636 7.55027 554.123 8.04115C553.616 8.53203 552.946 8.77747 552.113 8.77747ZM552.477 16H550.781L558.781 3.59016H560.477L552.477 16ZM552.113 7.61094C552.516 7.61094 552.841 7.47306 553.089 7.19728C553.337 6.92151 553.462 6.55749 553.462 6.10522C553.462 5.64743 553.337 5.28065 553.089 5.00488C552.847 4.72359 552.521 4.58294 552.113 4.58294C551.705 4.58294 551.377 4.72359 551.128 5.00488C550.88 5.28065 550.756 5.64743 550.756 6.10522C550.756 6.55749 550.88 6.92151 551.128 7.19728C551.377 7.47306 551.705 7.61094 552.113 7.61094ZM559.087 16.1655C558.254 16.1655 557.582 15.92 557.069 15.4291C556.561 14.9383 556.308 14.293 556.308 13.4932C556.308 12.688 556.561 12.0399 557.069 11.549C557.582 11.0581 558.254 10.8127 559.087 10.8127C559.926 10.8127 560.599 11.0581 561.106 11.549C561.619 12.0399 561.875 12.688 561.875 13.4932C561.875 14.293 561.619 14.9383 561.106 15.4291C560.599 15.92 559.926 16.1655 559.087 16.1655ZM559.087 14.9989C559.49 14.9989 559.815 14.8611 560.064 14.5853C560.317 14.3095 560.444 13.9455 560.444 13.4932C560.444 13.0354 560.32 12.6686 560.072 12.3929C559.824 12.1116 559.495 11.9709 559.087 11.9709C558.685 11.9709 558.359 12.1116 558.111 12.3929C557.863 12.6686 557.739 13.0354 557.739 13.4932C557.739 13.9455 557.863 14.3095 558.111 14.5853C558.359 14.8611 558.685 14.9989 559.087 14.9989Z" fill="#F9C301"/>
</svg>
