<svg width="10" height="17" viewBox="0 0 10 17" fill="none" xmlns="http://www.w3.org/2000/svg">
<path d="M7.02061 3.57977H9.06988C9.25841 3.57977 9.41142 3.43378 9.41142 3.25388V1.29855C9.41142 1.11865 9.25841 0.972656 9.06988 0.972656H7.02061C4.94948 0.972656 3.26361 2.5806 3.26361 4.55744V6.83867H0.872795C0.684262 6.83867 0.53125 6.98467 0.53125 7.16456V9.1199C0.53125 9.29979 0.684262 9.44579 0.872795 9.44579H3.26361V16.2895C3.26361 16.4694 3.41662 16.6154 3.60516 16.6154H5.65443C5.84296 16.6154 5.99597 16.4694 5.99597 16.2895V9.44579H8.38679C8.53365 9.44579 8.66412 9.35585 8.71126 9.22288L9.39435 7.26754C9.42918 7.16847 9.41142 7.05897 9.34721 6.97359C9.28232 6.88886 9.17986 6.83867 9.06988 6.83867H5.99597V4.55744C5.99597 4.01842 6.45569 3.57977 7.02061 3.57977Z" fill="#0E0E0D"/>
</svg>
