<svg width="42" height="42" viewBox="0 0 42 42" fill="none" xmlns="http://www.w3.org/2000/svg">
<path d="M7.60417 0.318899C7.8694 0.446432 8.09323 0.646283 8.24988 0.895439C8.40652 1.1446 8.48961 1.43293 8.48958 1.72723C8.48958 3.4564 9.13958 4.45223 9.95417 5.66473L10.0146 5.75223C10.7062 6.7814 11.6146 8.12932 11.6146 10.0606C11.6146 12.0314 10.6208 13.7689 9.10625 14.8001C9.50486 15.1335 9.85625 15.5453 10.1604 16.0356C11.1521 17.6397 11.6146 20.0918 11.6146 23.6126C11.6146 27.1793 11.1354 31.4627 10.3542 34.8835C9.96667 36.5835 9.48542 38.1522 8.9125 39.3293C8.64326 39.9157 8.28485 40.4568 7.85 40.9335C7.42083 41.3731 6.76042 41.8418 5.88542 41.8418C5.01042 41.8418 4.35 41.3731 3.92292 40.9335C3.48807 40.4568 3.12966 39.9157 2.86042 39.3293C2.28542 38.1502 1.80417 36.5835 1.41667 34.8814C0.603299 31.1789 0.180845 27.4013 0.15625 23.6106C0.15625 20.0897 0.61875 17.6397 1.61042 16.0356C1.89213 15.5691 2.24822 15.1518 2.66458 14.8001C1.89158 14.2747 1.25888 13.5681 0.821669 12.7419C0.384456 11.9158 0.156008 10.9953 0.15625 10.0606C0.15625 9.2939 0.15625 7.97515 0.954167 6.27307C1.73542 4.6064 3.22083 2.69182 5.95 0.5064C6.18002 0.322408 6.45736 0.20718 6.75003 0.174005C7.04271 0.14083 7.3388 0.191059 7.60417 0.318899ZM16.8229 27.0751C15.7194 26.889 14.646 26.5554 13.6313 26.0835C13.6757 25.2349 13.6979 24.4113 13.6979 23.6126C13.6979 22.7668 13.6715 21.9585 13.6187 21.1876C14.5417 21.9481 15.6312 22.5126 16.8229 22.8189V17.8731C16.8229 17.0443 17.1522 16.2494 17.7382 15.6634C18.3243 15.0773 19.1191 14.7481 19.9479 14.7481H27.2396C27.2398 13.1585 26.7853 11.602 25.9299 10.2622C25.0744 8.92248 23.8536 7.85534 22.4114 7.18673C20.9693 6.51811 19.366 6.27591 17.7907 6.4887C16.2155 6.70148 14.7339 7.36038 13.5208 8.38765C13.1604 6.69182 12.3229 5.45015 11.7875 4.6564L11.7042 4.5314C13.576 3.21191 15.7743 2.432 18.0591 2.27679C20.344 2.12159 22.6275 2.59706 24.6606 3.6513C26.6936 4.70554 28.3979 6.29803 29.5875 8.25494C30.7771 10.2118 31.4062 12.458 31.4062 14.7481H38.6979C39.5267 14.7481 40.3216 15.0773 40.9076 15.6634C41.4937 16.2494 41.8229 17.0443 41.8229 17.8731V36.6231C41.8229 37.4519 41.4937 38.2467 40.9076 38.8328C40.3216 39.4188 39.5267 39.7481 38.6979 39.7481H19.9479C19.1191 39.7481 18.3243 39.4188 17.7382 38.8328C17.1522 38.2467 16.8229 37.4519 16.8229 36.6231V27.0751ZM20.9896 27.0751V35.5814H37.6562V18.9147H30.6958C29.9507 21.0161 28.658 22.8804 26.9513 24.3151C25.2446 25.7497 23.1857 26.7025 20.9875 27.0751M26.125 18.9147H20.9896V22.8189C22.0621 22.5421 23.0686 22.0542 23.9504 21.3839C24.8322 20.7135 25.5714 19.8741 26.125 18.9147Z" fill="#F9C301" fill-opacity="0.8"/>
</svg>
