<svg width="562" height="20" viewBox="0 0 562 20" fill="none" xmlns="http://www.w3.org/2000/svg">
<rect width="502" height="10" rx="5" transform="matrix(1 0 0 -1 -0.0078125 15)" fill="#D9D9D9"/>
<rect width="384" height="10" rx="5" transform="matrix(1 0 0 -1 -0.0078125 15)" fill="#F9C301"/>
<path d="M533.882 16.2482C533.043 16.2482 532.307 16.102 531.673 15.8097C531.044 15.5174 530.553 15.1065 530.2 14.577C529.853 14.042 529.679 13.4215 529.679 12.7155C529.679 11.9213 529.897 11.2401 530.332 10.672C530.768 10.0984 531.367 9.68477 532.128 9.43106C531.499 9.18837 531.005 8.81884 530.647 8.32244C530.294 7.82053 530.117 7.22486 530.117 6.53542C530.117 5.89011 530.272 5.32753 530.581 4.84769C530.895 4.36784 531.334 3.9983 531.896 3.73907C532.464 3.47433 533.126 3.34196 533.882 3.34196C534.643 3.34196 535.305 3.47433 535.867 3.73907C536.435 3.9983 536.874 4.36784 537.183 4.84769C537.497 5.32753 537.654 5.89011 537.654 6.53542C537.654 7.21935 537.475 7.81226 537.116 8.31417C536.764 8.81608 536.273 9.18837 535.644 9.43106C536.405 9.67925 537.003 10.0902 537.439 10.6638C537.88 11.2374 538.101 11.9185 538.101 12.7073C538.101 13.4132 537.925 14.0337 537.572 14.5687C537.224 15.1037 536.733 15.5174 536.099 15.8097C535.47 16.102 534.731 16.2482 533.882 16.2482ZM533.882 8.54582C534.373 8.54582 534.767 8.38587 535.065 8.06597C535.368 7.74056 535.52 7.32138 535.52 6.80844C535.52 6.28447 535.368 5.86254 535.065 5.54264C534.767 5.22274 534.373 5.06279 533.882 5.06279C533.396 5.06279 533.002 5.22274 532.699 5.54264C532.401 5.86254 532.252 6.28447 532.252 6.80844C532.252 7.32138 532.401 7.74056 532.699 8.06597C533.002 8.38587 533.396 8.54582 533.882 8.54582ZM533.882 14.4612C534.29 14.4612 534.646 14.3757 534.949 14.2047C535.258 14.0282 535.495 13.7828 535.66 13.4684C535.831 13.154 535.917 12.79 535.917 12.3763C535.917 11.9627 535.831 11.5986 535.66 11.2843C535.495 10.9644 535.258 10.7189 534.949 10.5479C534.646 10.3714 534.29 10.2832 533.882 10.2832C533.485 10.2832 533.132 10.3714 532.823 10.5479C532.519 10.7244 532.282 10.9699 532.111 11.2843C531.946 11.5986 531.863 11.9627 531.863 12.3763C531.863 12.7955 531.946 13.1623 532.111 13.4767C532.282 13.7855 532.519 14.0282 532.823 14.2047C533.132 14.3757 533.485 14.4612 533.882 14.4612ZM543.843 16.2482C542.933 16.2482 542.144 15.9972 541.476 15.4953C540.815 14.9879 540.304 14.2543 539.946 13.2947C539.587 12.3294 539.408 11.1602 539.408 9.7868C539.408 8.41896 539.587 7.2552 539.946 6.2955C540.304 5.33581 540.815 4.605 541.476 4.1031C542.144 3.59567 542.933 3.34196 543.843 3.34196C544.753 3.34196 545.539 3.59567 546.201 4.1031C546.862 4.605 547.373 5.33581 547.731 6.2955C548.09 7.2552 548.269 8.41896 548.269 9.7868C548.269 11.1602 548.09 12.3294 547.731 13.2947C547.373 14.2543 546.862 14.9879 546.201 15.4953C545.539 15.9972 544.753 16.2482 543.843 16.2482ZM543.843 14.3288C544.538 14.3288 545.075 13.9317 545.456 13.1375C545.842 12.3432 546.035 11.2263 546.035 9.7868C546.035 8.35278 545.842 7.24141 545.456 6.45269C545.075 5.65846 544.538 5.26135 543.843 5.26135C543.148 5.26135 542.607 5.65846 542.221 6.45269C541.835 7.24141 541.642 8.35278 541.642 9.7868C541.642 11.2263 541.835 12.3432 542.221 13.1375C542.607 13.9317 543.148 14.3288 543.843 14.3288ZM552.207 8.77747C551.369 8.77747 550.693 8.53203 550.18 8.04115C549.673 7.55027 549.419 6.90496 549.419 6.10522C549.419 5.29996 549.673 4.65189 550.18 4.16101C550.693 3.67013 551.369 3.42469 552.207 3.42469C553.045 3.42469 553.718 3.67013 554.226 4.16101C554.733 4.65189 554.987 5.29996 554.987 6.10522C554.987 6.90496 554.73 7.55027 554.217 8.04115C553.71 8.53203 553.04 8.77747 552.207 8.77747ZM552.571 16H550.875L558.875 3.59016H560.571L552.571 16ZM552.207 7.61094C552.61 7.61094 552.935 7.47306 553.183 7.19728C553.431 6.92151 553.555 6.55749 553.555 6.10522C553.555 5.64743 553.431 5.28065 553.183 5.00488C552.94 4.72359 552.615 4.58294 552.207 4.58294C551.799 4.58294 551.471 4.72359 551.222 5.00488C550.974 5.28065 550.85 5.64743 550.85 6.10522C550.85 6.55749 550.974 6.92151 551.222 7.19728C551.471 7.47306 551.799 7.61094 552.207 7.61094ZM559.181 16.1655C558.348 16.1655 557.675 15.92 557.163 15.4291C556.655 14.9383 556.401 14.293 556.401 13.4932C556.401 12.688 556.655 12.0399 557.163 11.549C557.675 11.0581 558.348 10.8127 559.181 10.8127C560.02 10.8127 560.692 11.0581 561.2 11.549C561.713 12.0399 561.969 12.688 561.969 13.4932C561.969 14.293 561.713 14.9383 561.2 15.4291C560.692 15.92 560.02 16.1655 559.181 16.1655ZM559.181 14.9989C559.584 14.9989 559.909 14.8611 560.157 14.5853C560.411 14.3095 560.538 13.9455 560.538 13.4932C560.538 13.0354 560.414 12.6686 560.166 12.3929C559.918 12.1116 559.589 11.9709 559.181 11.9709C558.779 11.9709 558.453 12.1116 558.205 12.3929C557.957 12.6686 557.833 13.0354 557.833 13.4932C557.833 13.9455 557.957 14.3095 558.205 14.5853C558.453 14.8611 558.779 14.9989 559.181 14.9989Z" fill="#F9C301"/>
</svg>
