<svg width="16" height="17" viewBox="0 0 16 17" fill="none" xmlns="http://www.w3.org/2000/svg">
<path d="M2.17147 4.8046C3.21542 4.8046 4.0617 3.94766 4.0617 2.89058C4.0617 1.8335 3.21542 0.976562 2.17147 0.976562C1.12753 0.976562 0.28125 1.8335 0.28125 2.89058C0.28125 3.94766 1.12753 4.8046 2.17147 4.8046Z" fill="black"/>
<path d="M3.74666 6.08203H0.596287C0.422387 6.08203 0.28125 6.22494 0.28125 6.40103V15.9711C0.28125 16.1472 0.422387 16.2901 0.596287 16.2901H3.74666C3.92056 16.2901 4.0617 16.1472 4.0617 15.9711V6.40103C4.0617 6.22494 3.92056 6.08203 3.74666 6.08203Z" fill="black"/>
<path d="M13.1313 5.55002C11.7849 5.083 10.1007 5.49324 9.09068 6.22885C9.05602 6.09168 8.93253 5.9896 8.78572 5.9896H5.63535C5.46145 5.9896 5.32031 6.13251 5.32031 6.3086V15.8786C5.32031 16.0547 5.46145 16.1976 5.63535 16.1976H8.78572C8.95962 16.1976 9.10076 16.0547 9.10076 15.8786V9.00097C9.60986 8.55692 10.2658 8.41528 10.8026 8.64624C11.323 8.8689 11.6211 9.41248 11.6211 10.1366V15.8786C11.6211 16.0547 11.7622 16.1976 11.9361 16.1976H15.0865C15.2604 16.1976 15.4015 16.0547 15.4015 15.8786V9.49414C15.3656 6.87259 14.1477 5.9022 13.1313 5.55002Z" fill="black"/>
</svg>
