<svg width="95" height="67" viewBox="0 0 95 67" fill="none" xmlns="http://www.w3.org/2000/svg">
<path fill-rule="evenodd" clip-rule="evenodd" d="M82.0786 13.2578H94.0553L60.4736 66.3306L52.4895 52.4754L43.3308 66.3306L38.1641 59.2853L52.4895 36.741L60.2388 48.7181L82.0786 13.2578Z" fill="black"/>
<path fill-rule="evenodd" clip-rule="evenodd" d="M57.6198 33.9431L72.1307 13.2617H61.1454L56.6024 21.0599C53.8626 25.8434 55.912 29.9422 57.6198 33.9431Z" fill="black"/>
<path fill-rule="evenodd" clip-rule="evenodd" d="M47.2106 33.3466L50.9126 27.7379C46.7097 10.8028 37.187 -0.433969 22.5304 0.192928C5.52713 1.32801 -3.22653 19.3461 2.76961 32.1881L20.3373 64.3093C21.8134 66.7612 24.6079 66.8804 26.0835 64.5291L33.7901 49.7293L30.8108 43.9274L23.4687 59.1593L8.25809 30.4626C3.04766 20.4744 11.3416 7.00758 22.5304 6.14585C29.0868 5.26278 37.7535 11.5916 41.354 21.1836L47.2106 33.3461V33.3466Z" fill="black"/>
<path d="M24.2435 31.7721C27.6701 31.7721 30.4479 28.9943 30.4479 25.5677C30.4479 22.1411 27.6701 19.3633 24.2435 19.3633C20.8169 19.3633 18.0391 22.1411 18.0391 25.5677C18.0391 28.9943 20.8169 31.7721 24.2435 31.7721Z" fill="black"/>
</svg>
