<svg width="427" height="476" viewBox="0 0 427 476" fill="none" xmlns="http://www.w3.org/2000/svg">
<path d="M379.012 107.876C343.688 60.715 298.206 20.1807 237.573 10.5251C199.804 4.51044 157.5 -0.102757 118.818 4.15748C80.1283 8.41855 44.7248 21.598 21.2136 51.4818C-2.2035 81.246 -0.339085 115.695 8.92796 151.004C13.0543 166.727 18.6886 182.766 24.3017 198.745C24.9916 200.709 25.6812 202.672 26.3676 204.633C32.657 222.605 38.69 240.464 42.4365 257.939C46.3804 276.334 47.9545 296.512 49.2262 317.046C49.4119 320.044 49.5911 323.051 49.7706 326.061C50.8159 343.594 51.8666 361.217 54.2268 377.829C59.7555 416.742 72.6049 451.094 110.429 466.754C148.057 482.333 183.696 468.97 217.571 446.751C234.527 435.629 251.195 422.188 267.589 408.841C268.484 408.113 269.378 407.385 270.271 406.657C285.781 394.023 301.043 381.591 316.222 371.239C361.198 340.565 408.271 308.314 420.891 255.601C433.497 202.945 411.464 151.203 379.012 107.876Z" stroke="white" stroke-width="5"/>
</svg>
