<svg width="42" height="42" viewBox="0 0 42 42" fill="none" xmlns="http://www.w3.org/2000/svg">
<path d="M2.85692 38.9212L16.1153 25.6629M32.8111 19.7671L28.8423 31.6754C28.7787 31.8659 28.6701 32.0382 28.5258 32.1778C28.3815 32.3174 28.2056 32.4202 28.0132 32.4775L3.684 39.7108C3.46482 39.7759 3.23197 39.7796 3.01082 39.7216C2.78966 39.6635 2.58865 39.546 2.42968 39.3816C2.27071 39.2173 2.15986 39.0125 2.1092 38.7895C2.05853 38.5665 2.07 38.334 2.14234 38.117L10.0423 14.4212C10.099 14.2511 10.1915 14.0951 10.3137 13.9639C10.436 13.8327 10.585 13.7293 10.7507 13.6608L21.9736 9.03997C22.2017 8.94574 22.4527 8.92117 22.6948 8.96937C22.9369 9.01757 23.1593 9.13637 23.334 9.3108L32.509 18.4879C32.6732 18.652 32.7884 18.8586 32.8417 19.0846C32.8951 19.3105 32.8845 19.5468 32.8111 19.7671Z" stroke="#F9C301" stroke-width="3" stroke-linecap="round" stroke-linejoin="round"/>
<path d="M34.3268 2.62945L39.2519 7.55445C39.6219 7.90854 39.9176 8.33298 40.1214 8.80288C40.3252 9.27277 40.4332 9.77865 40.4388 10.2908C40.4445 10.803 40.3478 11.3111 40.1544 11.7854C39.961 12.2597 39.6748 12.6906 39.3126 13.0527C38.9505 13.4149 38.5196 13.7011 38.0453 13.8945C37.571 14.0879 37.0629 14.1846 36.5507 14.1789C36.0385 14.1733 35.5327 14.0654 35.0628 13.8615C34.5929 13.6577 34.1684 13.3621 33.8143 12.992L28.8873 8.06695C28.1923 7.34059 27.8094 6.371 27.8205 5.36581C27.8317 4.36062 28.2359 3.39974 28.9467 2.68892C29.6576 1.9781 30.6184 1.57385 31.6236 1.56274C32.6288 1.55162 33.6005 1.93452 34.3268 2.62945Z" fill="#F9C301" stroke="#F9C301" stroke-width="3" stroke-linecap="round" stroke-linejoin="round"/>
<path d="M20.5368 21.2431C20.2486 20.9446 19.9037 20.7066 19.5225 20.5428C19.1412 20.379 18.7312 20.2928 18.3162 20.2892C17.9013 20.2856 17.4898 20.3646 17.1057 20.5218C16.7217 20.6789 16.3728 20.9109 16.0794 21.2044C15.7859 21.4978 15.5539 21.8467 15.3968 22.2307C15.2396 22.6148 15.1606 23.0263 15.1642 23.4412C15.1678 23.8562 15.254 24.2662 15.4178 24.6475C15.5815 25.0287 15.8196 25.3736 16.1181 25.6618C16.7075 26.2311 17.4969 26.5461 18.3162 26.5389C19.1356 26.5318 19.9194 26.2032 20.4988 25.6238C21.0782 25.0444 21.4068 24.2606 21.4139 23.4412C21.4211 22.6219 21.1061 21.8325 20.5368 21.2431Z" stroke="#F9C301" stroke-width="3" stroke-linecap="round" stroke-linejoin="round"/>
</svg>
