<svg width="561" height="20" viewBox="0 0 561 20" fill="none" xmlns="http://www.w3.org/2000/svg">
<rect width="502" height="10" rx="5" transform="matrix(1 0 0 -1 -0.0078125 15)" fill="#D9D9D9"/>
<rect width="336" height="10" rx="5" transform="matrix(1 0 0 -1 -0.0078125 15)" fill="#F9C301"/>
<path d="M532.897 16H530.531L534.858 5.50954H529.431V3.59016H537.423L537.414 5.03797L532.897 16ZM537.985 14.6928L539.135 12.9389C539.361 13.3636 539.698 13.7028 540.145 13.9565C540.591 14.2047 541.079 14.3288 541.609 14.3288C542.094 14.3288 542.522 14.2268 542.891 14.0227C543.261 13.8186 543.548 13.5346 543.752 13.1706C543.961 12.8065 544.066 12.3874 544.066 11.913C544.066 11.4387 543.961 11.0195 543.752 10.6555C543.542 10.286 543.252 9.99915 542.883 9.79508C542.513 9.591 542.086 9.48897 541.601 9.48897C541.253 9.48897 540.928 9.54688 540.624 9.66271C540.321 9.77853 540.045 9.94675 539.797 10.1674L538.722 9.53033L539.276 3.59016H545.621V5.50954H541.27L540.972 8.42999C541.38 8.30865 541.81 8.24798 542.262 8.24798C543.046 8.24798 543.741 8.41345 544.347 8.74438C544.954 9.07531 545.428 9.53309 545.77 10.1177C546.118 10.7024 546.292 11.3725 546.292 12.1281C546.292 12.9224 546.098 13.6311 545.712 14.2543C545.326 14.8721 544.794 15.3602 544.116 15.7187C543.437 16.0717 542.662 16.2482 541.791 16.2482C541.052 16.2482 540.351 16.1131 539.689 15.8428C539.028 15.5725 538.46 15.1892 537.985 14.6928ZM550.221 8.77747C549.383 8.77747 548.707 8.53203 548.194 8.04115C547.687 7.55027 547.433 6.90496 547.433 6.10522C547.433 5.29996 547.687 4.65189 548.194 4.16101C548.707 3.67013 549.383 3.42469 550.221 3.42469C551.06 3.42469 551.733 3.67013 552.24 4.16101C552.747 4.65189 553.001 5.29996 553.001 6.10522C553.001 6.90496 552.745 7.55027 552.232 8.04115C551.724 8.53203 551.054 8.77747 550.221 8.77747ZM550.585 16H548.889L556.89 3.59016H558.586L550.585 16ZM550.221 7.61094C550.624 7.61094 550.949 7.47306 551.198 7.19728C551.446 6.92151 551.57 6.55749 551.57 6.10522C551.57 5.64743 551.446 5.28065 551.198 5.00488C550.955 4.72359 550.629 4.58294 550.221 4.58294C549.813 4.58294 549.485 4.72359 549.237 5.00488C548.989 5.28065 548.864 5.64743 548.864 6.10522C548.864 6.55749 548.989 6.92151 549.237 7.19728C549.485 7.47306 549.813 7.61094 550.221 7.61094ZM557.196 16.1655C556.363 16.1655 555.69 15.92 555.177 15.4291C554.67 14.9383 554.416 14.293 554.416 13.4932C554.416 12.688 554.67 12.0399 555.177 11.549C555.69 11.0581 556.363 10.8127 557.196 10.8127C558.034 10.8127 558.707 11.0581 559.214 11.549C559.727 12.0399 559.984 12.688 559.984 13.4932C559.984 14.293 559.727 14.9383 559.214 15.4291C558.707 15.92 558.034 16.1655 557.196 16.1655ZM557.196 14.9989C557.598 14.9989 557.924 14.8611 558.172 14.5853C558.426 14.3095 558.552 13.9455 558.552 13.4932C558.552 13.0354 558.428 12.6686 558.18 12.3929C557.932 12.1116 557.604 11.9709 557.196 11.9709C556.793 11.9709 556.468 12.1116 556.219 12.3929C555.971 12.6686 555.847 13.0354 555.847 13.4932C555.847 13.9455 555.971 14.3095 556.219 14.5853C556.468 14.8611 556.793 14.9989 557.196 14.9989Z" fill="#F9C301"/>
</svg>
