<svg width="46" height="46" viewBox="0 0 46 46" fill="none" xmlns="http://www.w3.org/2000/svg">
<path d="M21.0927 12.6942L21.3219 11.7359C21.3594 11.6095 21.399 11.4838 21.4406 11.3588L22.2136 9.60673C23.0119 8.17138 24.1383 6.94516 25.5009 6.02813C26.8634 5.11111 28.4236 4.52928 30.0539 4.33013C31.6842 4.13099 33.3384 4.32017 34.8817 4.88223C36.4249 5.4443 37.8134 6.36333 38.9338 7.56429C40.0541 8.76526 40.8746 10.2141 41.3283 11.7927C41.782 13.3712 41.8559 15.0346 41.5442 16.6472C41.2324 18.2597 40.5438 19.7757 39.5345 21.0714C38.5251 22.3671 37.2237 23.4057 35.7365 24.1026L34.6281 24.5463L34.3844 24.6234L33.3198 24.8901C32.6726 25.0178 32.0066 25.0817 31.3219 25.0817C29.7869 25.0818 28.2708 24.7427 26.8821 24.0885C25.4935 23.4343 24.2665 22.4813 23.2891 21.2977C22.3117 20.1141 21.608 18.729 21.2283 17.2417C20.8486 15.7544 20.8023 14.2015 21.0927 12.6942ZM17.7177 9.39631C15.8266 10.1313 14.1092 11.2518 12.6745 12.6864C11.2399 14.1211 10.1194 15.8386 9.38439 17.7296C6.2133 18.9613 3.57238 21.2624 1.9184 24.2351C0.264413 27.2078 -0.298606 30.6651 0.326721 34.009C0.952048 37.3529 2.72639 40.3731 5.34286 42.5472C7.95933 44.7213 11.2534 45.9126 14.6552 45.9151C17.5972 45.916 20.4707 45.0271 22.8983 43.3651C25.3259 41.7031 27.194 39.3457 28.2573 36.6026C28.5323 36.4942 28.8031 36.3789 29.0698 36.2567L29.774 35.9755L29.7531 35.9213C32.8809 34.2782 35.3093 31.5597 36.5906 28.2671C36.8656 28.1616 37.1379 28.047 37.4073 27.9234L38.1073 27.6421L38.0865 27.588C40.1732 26.4935 41.9637 24.9097 43.3047 22.972C44.6456 21.0344 45.497 18.8007 45.7861 16.4621C46.0751 14.1235 45.7932 11.7497 44.9644 9.54391C44.1356 7.33809 42.7847 5.36596 41.0272 3.79632C39.2697 2.22668 37.158 1.10629 34.8729 0.531058C32.5879 -0.044178 30.1974 -0.0571271 27.9062 0.493319C25.6151 1.04376 23.4914 2.14121 21.717 3.69172C19.9426 5.24222 18.5704 7.1996 17.7177 9.39631ZM31.3219 29.2484C30.2964 30.6166 28.9498 31.7113 27.4011 32.4359L26.2969 32.8776L26.0469 32.9609L24.9906 33.2234C24.342 33.3498 23.6747 33.4137 22.9886 33.4151C21.4535 33.4152 19.9375 33.076 18.5488 32.4218C17.1601 31.7677 15.9332 30.8147 14.9558 29.631C13.9784 28.4474 13.2747 27.0624 12.895 25.5751C12.5153 24.0877 12.469 22.5349 12.7594 21.0276L12.9886 20.0692C13.0261 19.9428 13.0656 19.8171 13.1073 19.6921L13.8823 17.938C14.5936 16.6576 15.5668 15.5417 16.7386 14.663C16.7386 18.5307 18.275 22.2421 21.0099 24.977C23.7448 27.7119 27.4541 29.2484 31.3219 29.2484ZM8.40522 22.9984C8.40522 26.8661 9.94168 30.5755 12.6766 33.3104C15.4115 36.0453 19.1208 37.5817 22.9886 37.5817C22.0931 38.7757 20.9516 39.7632 19.6412 40.4776C18.3309 41.1919 16.8823 41.6164 15.3937 41.7222C13.905 41.828 12.411 41.6127 11.0128 41.0908C9.61457 40.5689 8.34483 39.7527 7.28953 38.6974C6.23423 37.6421 5.41801 36.3724 4.89615 34.9742C4.37429 33.576 4.15897 32.082 4.26476 30.5933C4.37056 29.1046 4.795 27.6561 5.50936 26.3457C6.22371 25.0354 7.21129 23.8938 8.40522 22.9984Z" fill="#F9C301" fill-opacity="0.8"/>
</svg>
