<svg width="17" height="14" viewBox="0 0 17 14" fill="none" xmlns="http://www.w3.org/2000/svg">
<path d="M15.9763 2.18632C15.8728 2.0679 15.706 2.03812 15.5692 2.11116C15.4841 2.15654 15.3241 2.2161 15.1341 2.27495C15.3738 1.9431 15.5664 1.57155 15.6515 1.23757C15.6883 1.09363 15.6345 0.941885 15.5174 0.856086C15.4003 0.770997 15.2444 0.770997 15.1273 0.856086C14.9428 0.990102 14.0523 1.39286 13.4893 1.52333C12.2168 0.362567 10.736 0.242023 9.19672 1.17801C7.94538 1.93885 7.67306 3.48606 7.72616 4.42914C4.86197 4.14196 3.08163 2.56639 2.07947 1.26239C2.00935 1.17092 1.89633 1.1227 1.79013 1.12979C1.67847 1.1383 1.57771 1.20283 1.52052 1.30281C1.04668 2.13597 0.915278 3.05707 1.14199 3.96682C1.2659 4.46317 1.4824 4.90067 1.73362 5.25521C1.61311 5.19352 1.4967 5.11623 1.38708 5.02405C1.28632 4.93755 1.14539 4.92124 1.02625 4.97867C0.907789 5.03753 0.832219 5.16232 0.832219 5.29918C0.832219 6.86128 1.77038 7.90363 2.64659 8.4482C2.50498 8.43047 2.35725 8.39785 2.20815 8.35035C2.08015 8.30993 1.94127 8.35034 1.85276 8.45529C1.76426 8.55952 1.74315 8.70843 1.7983 8.83536C2.29053 9.96917 3.22324 10.7492 4.37723 11.0321C3.36962 11.6483 2.02092 11.9503 0.785923 11.8021C0.625932 11.7787 0.473429 11.8844 0.423049 12.0446C0.372668 12.2049 0.438707 12.3808 0.579636 12.463C2.45324 13.5585 4.14711 13.9499 5.61086 13.9499C7.74114 13.9499 9.38531 13.1217 10.3861 12.429C13.0842 10.5641 14.7658 7.21582 14.5316 4.21996C14.9639 3.8874 15.6107 3.27334 16.0117 2.61318C16.0947 2.47988 16.0798 2.30403 15.9763 2.18632Z" fill="#0C0C0C"/>
</svg>
